<svg xmlns="http://www.w3.org/2000/svg" xmlns:xlink="http://www.w3.org/1999/xlink" width="1366" zoomAndPan="magnify" viewBox="0 0 1024.5 576" height="768" preserveAspectRatio="xMidYMid meet" version="1.0"><defs><g/><clipPath id="780ec66e74"><path d="M 0.00390625 97 L 582 97 L 582 135 L 0.00390625 135 Z M 0.00390625 97 " clip-rule="nonzero"/></clipPath><clipPath id="4c726601a7"><path d="M 699 177 L 836.957031 177 L 836.957031 224 L 699 224 Z M 699 177 " clip-rule="nonzero"/></clipPath><clipPath id="b74fa9d61d"><rect x="0" width="138" y="0" height="47"/></clipPath><clipPath id="cf0a092ea7"><rect x="0" width="837" y="0" height="270"/></clipPath></defs><g transform="matrix(1, 0, 0, 1, 71, 144)"><g clip-path="url(#cf0a092ea7)"><g fill="#000000" fill-opacity="1"><g transform="translate(241.977938, 215.723638)"><g><path d="M 86.640625 -88.328125 C 94.304688 -83.835938 100.289062 -77.898438 104.59375 -70.515625 C 108.894531 -63.140625 111.046875 -55.148438 111.046875 -46.546875 C 111.046875 -37.765625 108.894531 -29.773438 104.59375 -22.578125 C 100.289062 -15.378906 94.539062 -9.535156 87.34375 -5.046875 C 80.144531 -0.554688 72.0625 1.875 63.09375 2.25 C 61.96875 2.4375 61.125 2.53125 60.5625 2.53125 C 48.414062 2.53125 37.671875 -1.300781 28.328125 -8.96875 C 27.765625 -9.53125 27.109375 -10.1875 26.359375 -10.9375 C 26.171875 -10.9375 26.03125 -11.03125 25.9375 -11.21875 C 25.84375 -11.40625 25.703125 -11.5 25.515625 -11.5 C 24.765625 -12.25 24.019531 -13.085938 23.28125 -14.015625 C 23.09375 -14.203125 22.90625 -14.390625 22.71875 -14.578125 C 21.96875 -15.328125 21.3125 -15.984375 20.75 -16.546875 C 13.832031 -25.328125 10.375 -35.328125 10.375 -46.546875 C 10.375 -47.109375 10.65625 -47.390625 11.21875 -47.390625 L 15.140625 -47.390625 C 15.515625 -47.390625 15.796875 -47.296875 15.984375 -47.109375 C 16.171875 -46.734375 16.265625 -46.453125 16.265625 -46.265625 L 15.984375 -45.703125 C 15.609375 -43.648438 15.421875 -40.003906 15.421875 -34.765625 C 15.421875 -29.535156 17.757812 -23.929688 22.4375 -17.953125 C 23 -17.015625 23.554688 -16.359375 24.109375 -15.984375 C 24.296875 -15.609375 24.484375 -15.328125 24.671875 -15.140625 C 25.234375 -14.390625 25.984375 -13.644531 26.921875 -12.90625 C 27.671875 -12.15625 28.507812 -11.40625 29.4375 -10.65625 C 38.414062 -3.175781 48.789062 0.5625 60.5625 0.5625 C 61.125 0.5625 61.875 0.5625 62.8125 0.5625 C 70.476562 0 77.441406 -2.195312 83.703125 -6.03125 C 89.960938 -9.863281 94.914062 -14.863281 98.5625 -21.03125 C 102.207031 -27.195312 104.03125 -34.019531 104.03125 -41.5 C 104.03125 -48.976562 102.207031 -55.894531 98.5625 -62.25 C 94.914062 -68.601562 89.726562 -73.742188 83 -77.671875 L 35.609375 -106.546875 C 28.316406 -111.035156 22.613281 -116.972656 18.5 -124.359375 C 14.394531 -131.742188 12.34375 -139.828125 12.34375 -148.609375 C 12.34375 -157.398438 14.347656 -165.394531 18.359375 -172.59375 C 22.378906 -179.789062 27.894531 -185.628906 34.90625 -190.109375 C 41.914062 -194.597656 49.722656 -197.125 58.328125 -197.6875 C 59.253906 -197.6875 60 -197.6875 60.5625 -197.6875 C 61.3125 -197.6875 61.6875 -197.3125 61.6875 -196.5625 C 61.6875 -196 61.3125 -195.71875 60.5625 -195.71875 C 60.1875 -195.71875 59.535156 -195.71875 58.609375 -195.71875 C 51.128906 -195.34375 44.394531 -193.191406 38.40625 -189.265625 C 32.425781 -185.347656 27.707031 -180.253906 24.25 -173.984375 C 20.789062 -167.722656 19.0625 -160.851562 19.0625 -153.375 C 19.0625 -145.90625 20.882812 -138.894531 24.53125 -132.34375 C 28.175781 -125.800781 33.082031 -120.660156 39.25 -116.921875 Z M 95.34375 -180.015625 C 93.84375 -181.515625 92.253906 -183.007812 90.578125 -184.5 C 90.203125 -185.0625 90.203125 -185.53125 90.578125 -185.90625 C 90.941406 -186.46875 91.40625 -186.46875 91.96875 -185.90625 C 93.65625 -184.414062 95.242188 -182.828125 96.734375 -181.140625 C 104.960938 -171.984375 109.078125 -161.140625 109.078125 -148.609375 C 109.078125 -147.867188 108.796875 -147.5 108.234375 -147.5 L 104.3125 -147.5 C 103.9375 -147.5 103.65625 -147.59375 103.46875 -147.78125 C 103.28125 -148.144531 103.28125 -148.421875 103.46875 -148.609375 C 105.707031 -160.578125 103 -171.046875 95.34375 -180.015625 Z M 95.34375 -180.015625 "/></g></g></g><g fill="#000000" fill-opacity="1"><g transform="translate(363.658023, 215.723638)"><g><path d="M 33.921875 -0.84375 C 34.671875 -0.84375 35.046875 -0.5625 35.046875 0 C 35.046875 0.5625 34.671875 0.84375 33.921875 0.84375 L 14.578125 0.84375 C 14.015625 0.84375 13.734375 0.5625 13.734375 0 C 13.734375 -0.5625 14.015625 -0.84375 14.578125 -0.84375 C 17.566406 -0.84375 19.0625 -2.335938 19.0625 -5.328125 L 19.0625 -190.109375 C 19.0625 -192.921875 17.566406 -194.328125 14.578125 -194.328125 C 14.015625 -194.328125 13.734375 -194.601562 13.734375 -195.15625 C 13.734375 -195.90625 14.015625 -196.28125 14.578125 -196.28125 L 33.921875 -196.28125 C 34.671875 -196.28125 35.046875 -195.90625 35.046875 -195.15625 C 35.046875 -194.601562 34.671875 -194.328125 33.921875 -194.328125 C 31.117188 -194.328125 29.71875 -192.921875 29.71875 -190.109375 L 29.71875 -5.328125 C 29.71875 -2.335938 31.117188 -0.84375 33.921875 -0.84375 Z M 33.921875 -0.84375 "/></g></g></g><g fill="#000000" fill-opacity="1"><g transform="translate(412.442196, 215.723638)"><g><path d="M 139.921875 -151.421875 C 139.546875 -151.421875 139.359375 -151.609375 139.359375 -151.984375 C 138.234375 -155.910156 136.644531 -160.253906 134.59375 -165.015625 C 132.539062 -169.785156 129.457031 -174.410156 125.34375 -178.890625 C 121.226562 -183.378906 115.710938 -187.304688 108.796875 -190.671875 C 108.609375 -190.859375 108.515625 -190.953125 108.515625 -190.953125 C 101.222656 -194.128906 93.5625 -195.71875 85.53125 -195.71875 C 84.78125 -195.71875 84.21875 -195.71875 83.84375 -195.71875 C 72.4375 -195.34375 62.148438 -190.757812 52.984375 -181.96875 C 43.828125 -173.1875 36.585938 -161.457031 31.265625 -146.78125 C 25.941406 -132.113281 23.28125 -115.710938 23.28125 -97.578125 C 23.28125 -79.441406 25.941406 -63.035156 31.265625 -48.359375 C 36.585938 -33.691406 43.828125 -22.007812 52.984375 -13.3125 C 62.148438 -4.625 72.4375 0 83.84375 0.5625 C 84.21875 0.5625 84.78125 0.5625 85.53125 0.5625 C 86.269531 0.5625 86.640625 0.84375 86.640625 1.40625 C 86.640625 2.15625 86.269531 2.53125 85.53125 2.53125 C 84.78125 2.53125 84.21875 2.4375 83.84375 2.25 C 73.75 2.0625 64.210938 -0.691406 55.234375 -6.015625 C 46.265625 -11.347656 38.414062 -18.59375 31.6875 -27.75 C 24.957031 -36.914062 19.675781 -47.476562 15.84375 -59.4375 C 12.007812 -71.40625 10.09375 -84.117188 10.09375 -97.578125 C 10.09375 -111.035156 12.007812 -123.742188 15.84375 -135.703125 C 19.675781 -147.671875 24.957031 -158.234375 31.6875 -167.390625 C 38.414062 -176.554688 46.265625 -183.800781 55.234375 -189.125 C 64.210938 -194.457031 73.75 -197.3125 83.84375 -197.6875 C 84.21875 -197.6875 84.78125 -197.6875 85.53125 -197.6875 C 93.375 -197.6875 101.035156 -196.097656 108.515625 -192.921875 C 108.703125 -192.921875 108.796875 -192.921875 108.796875 -192.921875 L 109.359375 -192.640625 C 109.359375 -192.453125 109.453125 -192.359375 109.640625 -192.359375 C 124.410156 -185.816406 136.5625 -174.226562 146.09375 -157.59375 C 146.28125 -157.21875 146.1875 -156.84375 145.8125 -156.46875 L 140.765625 -151.703125 C 140.578125 -151.515625 140.390625 -151.421875 140.203125 -151.421875 C 140.203125 -151.421875 140.109375 -151.421875 139.921875 -151.421875 Z M 150.296875 -98.703125 C 151.046875 -98.703125 151.421875 -98.328125 151.421875 -97.578125 C 151.421875 -97.015625 151.046875 -96.734375 150.296875 -96.734375 C 147.492188 -96.734375 146.09375 -95.332031 146.09375 -92.53125 L 146.09375 -38.140625 C 146.09375 -38.140625 146.09375 -38.046875 146.09375 -37.859375 C 146.09375 -37.859375 146.09375 -37.765625 146.09375 -37.578125 C 145.90625 -37.390625 145.90625 -37.390625 146.09375 -37.578125 C 143.289062 -32.710938 140.300781 -28.316406 137.125 -24.390625 C 136.9375 -24.390625 136.84375 -24.296875 136.84375 -24.109375 C 136.65625 -24.109375 136.46875 -24.109375 136.28125 -24.109375 C 136.09375 -24.109375 136 -24.109375 136 -24.109375 C 136 -24.109375 135.90625 -24.203125 135.71875 -24.390625 C 135.71875 -24.390625 135.625 -24.390625 135.4375 -24.390625 C 135.4375 -24.578125 135.4375 -24.765625 135.4375 -24.953125 L 135.4375 -92.25 C 135.4375 -92.25 135.4375 -92.34375 135.4375-92.53125 C 135.4375 -95.332031 133.941406 -96.734375 130.953125 -96.734375 C 130.390625 -96.734375 130.109375 -97.015625 130.109375 -97.578125 C 130.109375 -98.328125 130.390625 -98.703125 130.953125 -98.703125 Z M 150.296875 -98.703125 "/></g></g></g><g fill="#000000" fill-opacity="1"><g transform="translate(573.654278, 215.723638)"><g><path d="M 123.65625 -196.28125 C 124.21875 -196.28125 124.5 -195.90625 124.5 -195.15625 C 124.5 -194.601562 124.21875 -194.328125 123.65625 -194.328125 C 120.851562 -194.328125 119.453125 -192.921875 119.453125 -190.109375 L 119.453125 0 C 119.453125 0.5625 119.078125 0.84375 118.328125 0.84375 L 114.40625 0.84375 C 114.03125 0.84375 113.75 0.75 113.5625 0.5625 L 21.59375 -189.546875 C 21.40625 -189.921875 21.125 -190.296875 20.75 -190.671875 L 20.75 -5.328125 C 20.75 -2.335938 22.242188 -0.84375 25.234375 -0.84375 C 25.796875 -0.84375 26.078125 -0.5625 26.078125 0 C 26.078125 0.5625 25.796875 0.84375 25.234375 0.84375 L 14.578125 0.84375 C 14.015625 0.84375 13.734375 0.5625 13.734375 0 C 13.734375 -0.5625 14.015625 -0.84375 14.578125 -0.84375 C 17.566406 -0.84375 19.0625 -2.335938 19.0625 -5.328125 L 19.0625 -192.640625 C 17.570312 -193.765625 16.078125 -194.328125 14.578125 -194.328125 C 14.015625 -194.328125 13.734375 -194.601562 13.734375 -195.15625 C 13.734375 -195.90625 14.015625 -196.28125 14.578125 -196.28125 L 29.71875 -196.28125 C 30.09375 -196.28125 30.375 -196.09375 30.5625 -195.71875 L 117.484375 -15.984375 L 117.484375 -190.109375 C 117.484375 -192.921875 116.082031 -194.328125 113.28125 -194.328125 C 112.53125 -194.328125 112.15625 -194.601562 112.15625 -195.15625 C 112.15625 -195.90625 112.53125 -196.28125 113.28125 -196.28125 Z M 123.65625 -196.28125 "/></g></g></g><g clip-path="url(#780ec66e74)"><path stroke-linecap="butt" transform="matrix(3.168004, 0.00537424, -0.00537424, 3.168004, 3.369151, 113.587177)" fill="none" stroke-linejoin="miter" d="M 0.000228856 0.500219 L 176.831791 0.499867 " stroke="#000000" stroke-width="1" stroke-opacity="1" stroke-miterlimit="4"/></g><g clip-path="url(#4c726601a7)"><g transform="matrix(1, 0, 0, 1, 699, 177)"><g clip-path="url(#b74fa9d61d)"><g fill="#000000" fill-opacity="1"><g transform="translate(2.684638, 37.464276)"><g><path d="M 13.046875 0.375 C 11.210938 0.375 9.472656 0.0703125 7.828125 -0.53125 C 6.179688 -1.132812 4.800781 -2.085938 3.6875 -3.390625 C 2.570312 -4.703125 1.859375 -6.398438 1.546875 -8.484375 L 4.96875 -8.484375 C 5.257812 -6.992188 5.832031 -5.828125 6.6875 -4.984375 C 7.539062 -4.140625 8.550781 -3.535156 9.71875 -3.171875 C 10.882812 -2.816406 12.039062 -2.640625 13.1875 -2.640625 C 15.15625 -2.640625 16.695312 -3.050781 17.8125 -3.875 C 18.925781 -4.695312 19.484375 -5.941406 19.484375 -7.609375 C 19.484375 -8.609375 19.265625 -9.425781 18.828125 -10.0625 C 18.398438 -10.707031 17.816406 -11.222656 17.078125 -11.609375 C 16.347656 -12.003906 15.523438 -12.320312 14.609375 -12.5625 C 13.691406 -12.8125 12.726562 -13.046875 11.71875 -13.265625 C 10.613281 -13.484375 9.53125 -13.738281 8.46875 -14.03125 C 7.40625 -14.332031 6.4375 -14.738281 5.5625 -15.25 C 4.695312 -15.757812 4 -16.445312 3.46875 -17.3125 C 2.945312 -18.1875 2.6875 -19.3125 2.6875 -20.6875 C 2.6875 -22.28125 3.070312 -23.648438 3.84375 -24.796875 C 4.613281 -25.953125 5.679688 -26.84375 7.046875 -27.46875 C 8.421875 -28.09375 10.03125 -28.40625 11.875 -28.40625 C 13.46875 -28.40625 14.976562 -28.128906 16.40625 -27.578125 C 17.84375 -27.023438 19.066406 -26.160156 20.078125 -24.984375 C 21.097656 -23.804688 21.753906 -22.253906 22.046875 -20.328125 L 18.78125 -20.328125 C 18.507812 -21.597656 18.019531 -22.597656 17.3125 -23.328125 C 16.601562 -24.066406 15.769531 -24.59375 14.8125 -24.90625 C 13.851562 -25.226562 12.859375 -25.390625 11.828125 -25.390625 C 9.941406 -25.390625 8.507812 -24.988281 7.53125 -24.1875 C 6.550781 -23.394531 6.0625 -22.328125 6.0625 -20.984375 C 6.0625 -19.859375 6.394531 -18.984375 7.0625 -18.359375 C 7.738281 -17.734375 8.625 -17.253906 9.71875 -16.921875 C 10.8125 -16.585938 11.984375 -16.285156 13.234375 -16.015625 C 14.378906 -15.773438 15.519531 -15.492188 16.65625 -15.171875 C 17.800781 -14.859375 18.835938 -14.421875 19.765625 -13.859375 C 20.703125 -13.296875 21.453125 -12.535156 22.015625 -11.578125 C 22.578125 -10.617188 22.859375 -9.367188 22.859375 -7.828125 C 22.859375 -5.347656 22.023438 -3.359375 20.359375 -1.859375 C 18.691406 -0.367188 16.253906 0.375 13.046875 0.375 Z M 13.046875 0.375 "/></g></g></g><g fill="#000000" fill-opacity="1"><g transform="translate(25.763143, 37.464276)"><g><path d="M 13.375 0 L 10 0 L 10 -24.984375 L 0.515625 -24.984375 L 0.515625 -28.046875 L 22.890625 -28.046875 L 22.890625 -24.984375 L 13.375 -24.984375 Z M 13.375 0 "/></g></g></g><g fill="#000000" fill-opacity="1"><g transform="translate(47.518712, 37.464276)"><g><path d="M 13.046875 0.375 C 9.492188 0.375 6.867188 -0.523438 5.171875 -2.328125 C 3.484375 -4.128906 2.640625 -6.585938 2.640625 -9.703125 L 2.640625 -28.046875 L 6.03125 -28.046875 L 6.03125 -9.703125 C 6.03125 -7.523438 6.585938 -5.800781 7.703125 -4.53125 C 8.816406 -3.269531 10.597656 -2.640625 13.046875 -2.640625 C 15.492188 -2.640625 17.273438 -3.269531 18.390625 -4.53125 C 19.503906 -5.800781 20.0625 -7.523438 20.0625 -9.703125 L 20.0625 -28.046875 L 23.453125 -28.046875 L 23.453125 -9.703125 C 23.453125 -6.585938 22.601562 -4.128906 20.90625 -2.328125 C 19.21875 -0.523438 16.597656 0.375 13.046875 0.375 Z M 13.046875 0.375 "/></g></g></g><g fill="#000000" fill-opacity="1"><g transform="translate(71.993704, 37.464276)"><g><path d="M 10.578125 0 L 2.90625 0 L 2.90625 -28.046875 L 10.625 -28.046875 C 15.300781 -28.046875 18.867188 -26.816406 21.328125 -24.359375 C 23.796875 -21.910156 25.03125 -18.429688 25.03125 -13.921875 C 25.03125 -9.492188 23.789062 -6.066406 21.3125 -3.640625 C 18.84375 -1.210938 15.265625 0 10.578125 0 Z M 6.28125 -24.984375 L 6.28125 -3.046875 L 10.546875 -3.046875 C 12.015625 -3.046875 13.414062 -3.195312 14.75 -3.5 C 16.09375 -3.8125 17.273438 -4.363281 18.296875 -5.15625 C 19.328125 -5.957031 20.140625 -7.066406 20.734375 -8.484375 C 21.335938 -9.910156 21.640625 -11.722656 21.640625 -13.921875 C 21.640625 -16.671875 21.164062 -18.847656 20.21875 -20.453125 C 19.28125 -22.054688 17.984375 -23.210938 16.328125 -23.921875 C 14.679688 -24.628906 12.765625 -24.984375 10.578125 -24.984375 Z M 6.28125 -24.984375 "/></g></g></g><g fill="#000000" fill-opacity="1"><g transform="translate(97.240421, 37.464276)"><g><path d="M 6.28125 0 L 2.90625 0 L 2.90625 -28.046875 L 6.28125 -28.046875 Z M 6.28125 0 "/></g></g></g><g fill="#000000" fill-opacity="1"><g transform="translate(104.810795, 37.464276)"><g><path d="M 14.84375 0.375 C 12.644531 0.375 10.726562 -0.0078125 9.09375 -0.78125 C 7.46875 -1.5625 6.113281 -2.625 5.03125 -3.96875 C 3.957031 -5.3125 3.15625 -6.847656 2.625 -8.578125 C 2.101562 -10.304688 1.84375 -12.125 1.84375 -14.03125 C 1.84375 -15.945312 2.101562 -17.769531 2.625 -19.5 C 3.15625 -21.226562 3.957031 -22.757812 5.03125 -24.09375 C 6.113281 -25.425781 7.46875 -26.476562 9.09375 -27.25 C 10.726562 -28.019531 12.644531 -28.40625 14.84375 -28.40625 C 17.070312 -28.40625 19.003906 -28.019531 20.640625 -27.25 C 22.285156 -26.476562 23.644531 -25.425781 24.71875 -24.09375 C 25.800781 -22.757812 26.609375 -21.226562 27.140625 -19.5 C 27.671875 -17.769531 27.9375 -15.945312 27.9375 -14.03125 C 27.9375 -12.125 27.671875 -10.304688 27.140625 -8.578125 C 26.609375 -6.847656 25.800781 -5.3125 24.71875 -3.96875 C 23.644531 -2.625 22.285156 -1.5625 20.640625 -0.78125 C 19.003906 -0.0078125 17.070312 0.375 14.84375 0.375 Z M 14.84375 -2.6875 C 16.945312 -2.6875 18.722656 -3.175781 20.171875 -4.15625 C 21.617188 -5.132812 22.707031 -6.476562 23.4375 -8.1875 C 24.175781 -9.90625 24.546875 -11.851562 24.546875 -14.03125 C 24.546875 -16.21875 24.175781 -18.160156 23.4375 -19.859375 C 22.707031 -21.566406 21.617188 -22.910156 20.171875 -23.890625 C 18.722656 -24.867188 16.945312 -25.359375 14.84375 -25.359375 C 12.789062 -25.359375 11.046875 -24.867188 9.609375 -23.890625 C 8.171875 -22.910156 7.078125 -21.566406 6.328125 -19.859375 C 5.585938 -18.160156 5.21875 -16.21875 5.21875 -14.03125 C 5.21875 -11.851562 5.585938 -9.90625 6.328125 -8.1875 C 7.078125 -6.476562 8.171875 -5.132812 9.609375 -4.15625 C 11.046875 -3.175781 12.789062 -2.6875 14.84375 -2.6875 Z M 14.84375 -2.6875 "/></g></g></g></g></g></g><g fill="#222222" fill-opacity="1"><g transform="translate(71.795255, 100.978104)"><g><path d="M 24.625 -3.34375 C 24.757812 -3.144531 24.757812 -2.976562 24.625 -2.84375 C 22.53125 -0.75 20 0.296875 17.03125 0.296875 C 16.894531 0.296875 16.722656 0.296875 16.515625 0.296875 C 13.609375 0.234375 11.160156 -0.84375 9.171875 -2.9375 C 7.179688 -5.03125 6.1875 -7.53125 6.1875 -10.4375 L 6.1875 -45.8125 L 3.75 -45.8125 C 3.550781 -45.8125 3.453125 -45.910156 3.453125 -46.109375 C 3.453125 -46.378906 3.550781 -46.515625 3.75 -46.515625 L 6.1875 -46.515625 L 6.1875 -53.921875 C 6.1875 -54.054688 6.253906 -54.15625 6.390625 -54.21875 L 9.53125 -55.84375 C 9.664062 -55.90625 9.800781 -55.90625 9.9375 -55.84375 C 10 -55.769531 10.03125 -55.664062 10.03125 -55.53125 L 10.03125 -46.515625 L 17.03125 -46.515625 C 17.226562 -46.515625 17.328125 -46.378906 17.328125 -46.109375 C 17.328125 -45.910156 17.226562 -45.8125 17.03125 -45.8125 L 10.03125 -45.8125 L 10.03125 -10.4375 C 10.03125 -7.800781 10.671875 -5.503906 11.953125 -3.546875 C 13.242188 -1.585938 14.800781 -0.539062 16.625 -0.40625 C 16.6875 -0.332031 16.820312 -0.296875 17.03125 -0.296875 C 19.800781 -0.296875 22.164062 -1.3125 24.125 -3.34375 C 24.320312 -3.476562 24.488281 -3.476562 24.625 -3.34375 Z M 24.625 -3.34375 "/></g></g></g><g fill="#222222" fill-opacity="1"><g transform="translate(93.17303, 100.978104)"><g><path d="M 40.03125 -0.90625 C 40.164062 -0.769531 40.164062 -0.601562 40.03125 -0.40625 C 39.957031 -0.332031 39.859375 -0.265625 39.734375 -0.203125 C 39.660156 -0.203125 39.625 -0.203125 39.625 -0.203125 C 38.945312 0.398438 38.132812 0.703125 37.1875 0.703125 C 36.113281 0.703125 35.171875 0.332031 34.359375 -0.40625 C 33.609375 -1.21875 33.234375 -2.164062 33.234375 -3.25 L 33.234375 -31.3125 C 33.234375 -33.945312 32.742188 -36.363281 31.765625 -38.5625 C 30.785156 -40.757812 29.453125 -42.53125 27.765625 -43.875 C 26.078125 -45.226562 24.21875 -45.972656 22.1875 -46.109375 C 21.914062 -46.179688 21.71875 -46.21875 21.59375 -46.21875 C 19.019531 -46.21875 16.648438 -45.609375 14.484375 -44.390625 C 14.421875 -44.316406 14.359375 -44.28125 14.296875 -44.28125 C 14.160156 -44.28125 14.054688 -44.347656 13.984375 -44.484375 C 13.847656 -44.691406 13.882812 -44.863281 14.09375 -45 C 16.382812 -46.21875 18.882812 -46.828125 21.59375 -46.828125 C 21.71875 -46.828125 21.914062 -46.828125 22.1875 -46.828125 C 24.957031 -46.691406 27.472656 -45.929688 29.734375 -44.546875 C 32.003906 -43.160156 33.796875 -41.300781 35.109375 -38.96875 C 36.429688 -36.632812 37.09375 -34.082031 37.09375 -31.3125 L 37.09375 -1.921875 C 37.09375 -1.515625 37.226562 -1.175781 37.5 -0.90625 C 38.039062 -0.363281 38.648438 -0.296875 39.328125 -0.703125 L 39.421875 -0.8125 C 39.492188 -0.875 39.53125 -0.90625 39.53125 -0.90625 C 39.664062 -1.039062 39.832031 -1.039062 40.03125 -0.90625 Z M 11.453125 -0.296875 C 11.722656 -0.296875 11.859375 -0.195312 11.859375 0 C 11.859375 0.195312 11.722656 0.296875 11.453125 0.296875 L 4.453125 0.296875 C 4.253906 0.296875 4.15625 0.195312 4.15625 0 C 4.15625 -0.195312 4.253906 -0.296875 4.453125 -0.296875 C 5.535156 -0.296875 6.078125 -0.835938 6.078125 -1.921875 L 6.078125 -67.59375 C 6.078125 -67.9375 5.976562 -68.175781 5.78125 -68.3125 C 5.507812 -68.445312 5.132812 -68.410156 4.65625 -68.203125 C 4.457031 -68.066406 4.289062 -68.101562 4.15625 -68.3125 C 4.082031 -68.582031 4.148438 -68.75 4.359375 -68.8125 L 6.1875 -69.71875 L 9.421875 -71.34375 C 9.554688 -71.414062 9.660156 -71.414062 9.734375 -71.34375 C 9.867188 -71.28125 9.9375 -71.179688 9.9375 -71.046875 L 9.9375 -1.921875 C 9.9375 -0.835938 10.441406 -0.296875 11.453125 -0.296875 Z M 11.453125 -0.296875 "/></g></g></g><g fill="#222222" fill-opacity="1"><g transform="translate(131.87764, 100.978104)"><g><path d="M 24.828125 -46.828125 C 28.472656 -46.617188 31.765625 -45.429688 34.703125 -43.265625 C 37.648438 -41.109375 39.984375 -38.253906 41.703125 -34.703125 C 43.421875 -31.160156 44.28125 -27.257812 44.28125 -23 C 44.28125 -22.800781 44.179688 -22.703125 43.984375 -22.703125 L 20.0625 -22.703125 C 19.789062 -22.703125 19.65625 -22.800781 19.65625 -23 C 19.65625 -23.207031 19.789062 -23.3125 20.0625 -23.3125 L 40.4375 -23.3125 C 40.363281 -27.363281 39.632812 -31.078125 38.25 -34.453125 C 36.863281 -37.835938 35.003906 -40.578125 32.671875 -42.671875 C 30.347656 -44.765625 27.734375 -45.910156 24.828125 -46.109375 C 24.285156 -46.179688 23.710938 -46.179688 23.109375 -46.109375 C 20.203125 -45.910156 17.566406 -44.742188 15.203125 -42.609375 C 12.835938 -40.484375 10.960938 -37.710938 9.578125 -34.296875 C 8.191406 -30.890625 7.5 -27.125 7.5 -23 C 7.5 -18.882812 8.191406 -15.117188 9.578125 -11.703125 C 10.960938 -8.296875 12.835938 -5.523438 15.203125 -3.390625 C 17.566406 -1.265625 20.203125 -0.101562 23.109375 0.09375 C 23.441406 0.164062 23.742188 0.203125 24.015625 0.203125 C 27.734375 0.203125 31.144531 -0.925781 34.25 -3.1875 C 37.363281 -5.457031 39.765625 -8.550781 41.453125 -12.46875 C 41.585938 -12.664062 41.753906 -12.734375 41.953125 -12.671875 C 42.160156 -12.535156 42.226562 -12.363281 42.15625 -12.15625 C 40.40625 -8.175781 37.90625 -5.019531 34.65625 -2.6875 C 31.414062 -0.351562 27.867188 0.8125 24.015625 0.8125 C 23.679688 0.8125 23.378906 0.8125 23.109375 0.8125 C 19.460938 0.675781 16.164062 -0.488281 13.21875 -2.6875 C 10.28125 -4.882812 7.945312 -7.753906 6.21875 -11.296875 C 4.5 -14.847656 3.640625 -18.75 3.640625 -23 C 3.640625 -27.257812 4.5 -31.160156 6.21875 -34.703125 C 7.945312 -38.253906 10.28125 -41.109375 13.21875 -43.265625 C 16.164062 -45.429688 19.460938 -46.617188 23.109375 -46.828125 C 23.710938 -46.890625 24.285156 -46.890625 24.828125 -46.828125 Z M 24.828125 -46.828125 "/></g></g></g></g></g></svg>
